<?xml version="1.0" encoding="UTF-8"?><!DOCTYPE svg PUBLIC "-//W3C//DTD SVG 1.1//EN" "http://www.w3.org/Graphics/SVG/1.1/DTD/svg11.dtd"><svg xmlns="http://www.w3.org/2000/svg" xmlns:xlink="http://www.w3.org/1999/xlink"><defs>
        <path id="SVGID_1_" d="M0 0h97.6v86.7H0z"/>
    
        <path id="SVGID_1_" d="M0 0h253.8v253.8H0z"/>
    
        <path id="SVGID_1_" d="M0 0h9.6v11.2H0z"/>
    
        <path id="SVGID_1_" d="M0 0h160.1v135.4H0z"/>
    
        <path id="SVGID_1_" d="M0 0h143.1v158.5H0z"/>
    
        <path id="SVGID_1_" d="M0 0h253.8v253.8H0z"/>
    
        <path id="SVGID_1_" d="M0 0h153.4v154.6H0z"/>
    
        <path id="SVGID_1_" d="M0 0h253.8v253.8H0z"/>
    </defs><symbol id="icon-afc-arrow" viewBox="0 0 45.6 45.6">
    <style>
        .st0{fill:#e7e7e7;stroke:url(#SVGID_1_);stroke-miterlimit:10}.st1{fill:#2d6965}
    </style>
    <linearGradient id="SVGID_1_" gradientUnits="userSpaceOnUse" x1="1.827" y1="22.8" x2="43.773" y2="22.8">
        <stop offset=".231" stop-color="#2d6965"/>
        <stop offset="1" stop-color="#2d6965"/>
    </linearGradient>
    <circle class="st0" cx="22.8" cy="22.8" r="20.5"/>
    <linearGradient id="SVGID_2_" gradientUnits="userSpaceOnUse" x1="10.695" y1="22.8" x2="34.905" y2="22.8">
        <stop offset=".231" stop-color="#5ab29f"/>
        <stop offset="1" stop-color="#283f3a"/>
    </linearGradient>
    <path class="st1" d="M22.8 15.5L10.7 27.6l2.5 2.5 9.6-9.7 9.6 9.7 2.5-2.5z"/>
</symbol><symbol id="icon-check" viewBox="0 0 97.6 86.7">
    <style>
        .st0{clip-path:url(#SVGID_2_);fill:#2e6b67}
    </style>
    
    <clipPath id="SVGID_2_">
        <use xlink:href="#SVGID_1_" overflow="visible"/>
    </clipPath>
    <path class="st0" d="M96.9 11.9L84 .5c-.4-.4-1-.5-1.5-.5s-1 .3-1.4.7l-47 53.5-16.7-22.1c-.3-.4-.8-.7-1.3-.8-.5-.1-1.1.1-1.5.4L.8 42.1c-.9.7-1.1 1.9-.4 2.8l31 41c.4.5.9.8 1.5.8h.1c.6 0 1.1-.2 1.5-.7l62.6-71.3c.7-.8.7-2.1-.2-2.8"/>
</symbol><symbol id="icon-checkout-back" viewBox="0 0 306 306">
    <style>
        .st0{fill:#fff}
    </style>
    <path class="st0" d="M241.7 153L94.4 5.7l-30.1 30L181.6 153 64.3 270.3l30.1 30z"/>
</symbol><symbol id="icon-checkout-delete" viewBox="0 0 357 357">
    <path d="M357 35.7L321.3 0 178.5 142.8 35.7 0 0 35.7l142.8 142.8L0 321.3 35.7 357l142.8-142.8L321.3 357l35.7-35.7-142.8-142.8z"/>
</symbol><symbol id="icon-facebook" viewBox="0 0 253.8 253.8">
    <style>
        .st0{clip-path:url(#SVGID_2_);fill:#fff}
    </style>
    
    <clipPath id="SVGID_2_">
        <use xlink:href="#SVGID_1_" overflow="visible"/>
    </clipPath>
    <path class="st0" d="M126.9 0C56.8 0 0 56.8 0 126.9v.1c0 70 56.8 126.8 126.8 126.8h.1c70 0 126.8-56.8 126.8-126.8v-.1C253.7 56.8 196.9 0 126.9 0m36.8 74.3h-13.6c-10.7 0-12.7 5.1-12.7 12.5v16.4h25.5l-3.3 25.7h-22.2v66h-26.6v-66H88.5v-25.7h22.2v-19c0-22 13.4-34 33.1-34 9.4 0 17.5.7 19.9 1v23.1z"/>
</symbol><symbol id="icon-play" viewBox="0 0 40.2 40.2">
    <style>
        .st0{fill:#b5b5b5}.st1{fill:none;stroke:#fff;stroke-width:.5;stroke-miterlimit:10}
    </style>
    <path class="st0" d="M17 26.3l9.4-6.3-9.4-6.2z"/>
    <circle class="st1" cx="20.1" cy="20.1" r="19.8"/>
</symbol><symbol id="icon-review-arrow" viewBox="0 0 306 306">
    <style>
        .st0{fill:#000}
    </style>
    <path class="st0" d="M241.7 153L94.4 5.7l-30.1 30L181.6 153 64.3 270.3l30.1 30z"/>
</symbol><symbol id="icon-ruble" viewBox="0 0 9.6 11.2">
    <style>
        .st0{clip-path:url(#SVGID_2_)}
    </style>
    
    <clipPath id="SVGID_2_">
        <use xlink:href="#SVGID_1_" overflow="visible"/>
    </clipPath>
    <path class="st0" d="M6.2 6.5c2.1 0 3.4-1.5 3.4-3.3C9.6 1.5 8.3 0 6.2 0H2v5.7H0v.9h2v1.1H0v.9h2v2.7h1V8.5h3.4v-.9H3V6.5h3.2zM3 .9h3.1c1.5 0 2.5 1 2.5 2.4s-1 2.4-2.5 2.4H3V.9z"/>
</symbol><symbol id="icon-telegram" viewBox="0 0 160.1 135.4">
    <style>
        .st0{clip-path:url(#SVGID_2_);fill:#fff}
    </style>
    
    <clipPath id="SVGID_2_">
        <use xlink:href="#SVGID_1_" overflow="visible"/>
    </clipPath>
    <path class="st0" d="M149.5 1.1L6 55.4c-7.8 2.3-7.6 10-1.8 11.9l35.9 11.2 13.8 42.2c1.7 4.6 3 6.4 5.9 6.4 3 0 4.1-1.1 7.3-3.8 3.6-3.4 9.2-8.8 18-17.4l37.4 27.6c6.9 3.8 11.8 1.8 13.6-6.4l23.4-116c2.5-10-3.4-13-10-10M45.8 75.9l81.7-51.3c4-2.7 5.3.3 3.5 2.4L63.2 88l-3.5 30.5-13.9-42.6z"/>
</symbol><symbol id="icon-viber" viewBox="0 0 143.1 158.5">
    <style>
        .st0{clip-path:url(#SVGID_2_);fill:#fff}
    </style>
    
    <clipPath id="SVGID_2_">
        <use xlink:href="#SVGID_1_" overflow="visible"/>
    </clipPath>
    <path class="st0" d="M127.4 14.7c-5.8-5-12.7-8-20-9.9C88.8 0 70.1-1.3 51.2 1.3c-9.6 1.3-18.9 3.8-27.4 8.6-10 5.6-16.9 13.7-19.9 24.9C1.7 42.8.7 50.9.3 59.2-.4 71.4 0 83.5 3.1 95.4c3.6 13.7 11.4 23.9 24.9 29.3 1.5.6 2.8 1.4 4.3 2 1.3.6 1.8 1.5 1.7 2.9-.1 9.5 0 19 0 28.9 3.5-3.4 6-5.9 7.7-7.9 5.3-6 10.3-11 15.8-16.6 2.8-2.9 1.6-2.7 6-2.7 5.1.1 13.1.3 18.2-.1 9.7-.8 19.3-2 28.6-4.8 11.9-3.6 21.4-9.9 26.2-21.9 1.3-3.2 2.5-6.4 3.3-9.7 4.6-19.1 4-38.2.1-57.3-1.7-8.9-5.5-16.8-12.5-22.8m-59 11.6c.1-1.8 1.2-2.5 2.9-2.5 14.7.7 25.8 5.1 34.3 16.6 5 6.7 7.7 15.8 8 24.2 0 1.3.1 2.5 0 3.8-.1 1.4-.7 2.5-2.3 2.5-1.6 0-2.4-.8-2.5-2.5-.4-6.2-1.6-12.3-4-18.1-4.6-11.2-13.4-17.2-24.8-20.1-3-.8-6-1.4-9.1-1.7-1.3-.1-2.6-.4-2.5-2.2m14.9 15.6c-3-1-6-1.9-9.2-2.3-1.5-.2-2.6-1-2.3-2.8.3-1.7 1.4-2.3 3-2.2 10.3 1 18.3 4.7 23.8 13.6 2.6 4.2 4.1 10.1 3.9 14.5-.2 3.1-.6 3.9-2.4 3.9-2.6-.1-2.2-2.2-2.4-3.8-.3-2.4-.8-4.8-1.5-7.2-2-6.8-6.3-11.3-12.9-13.7M92 59.2c-.1.9-.1 1.5-.2 2-.3 1.1-1 1.8-2.2 1.9-1.3 0-1.9-.7-2.3-1.8-.2-.8-.3-1.6-.4-2.3-.8-4.1-3.2-6.9-7.3-8l-1.5-.3c-1.3-.4-2.9-.4-3-2.3 0-1.6 1.2-2.5 3.3-2.6 1.5-.1 3.7.6 5.1 1.3 5.3 2.6 7.8 6.3 8.5 12.1m21.6 43.7c-2.9 6.5-7.7 10.7-14.6 12.7-2.5.7-4.9.1-7.1-.9C60.7 101.4 38.2 79.6 25.5 48c-.9-2.3-1.5-4.7-1.4-6.8 0-8.1 7.2-15.7 15-16.1 2.2-.1 4 .6 5.6 2.1 5.5 5.2 9.9 11.1 13.2 17.9 1.8 3.7 1 6.3-2.1 8.9-.5.4-1.1.8-1.6 1.2-4.2 3.1-5.1 6.2-3.1 11 3.3 7.9 8.6 14.1 15.9 18.7 2.7 1.7 5.5 3.4 8.6 4.3 2.9.8 5.2-.1 7-2.3.2-.3.4-.5.6-.8 4-5.6 8.3-6.5 14.1-2.9 5 3.1 9.7 6.6 14.2 10.4 2.9 2.6 3.7 5.7 2.1 9.3"/>
</symbol><symbol id="icon-vk" viewBox="0 0 253.8 253.8">
    <style>
        .st0{clip-path:url(#SVGID_2_);fill:#fff}
    </style>
    
    <clipPath id="SVGID_2_">
        <use xlink:href="#SVGID_1_" overflow="visible"/>
    </clipPath>
    <path class="st0" d="M126.9 0C56.8 0 0 56.8 0 126.9v.1c0 70 56.8 126.8 126.8 126.8h.1c70 0 126.8-56.8 126.8-126.8v-.1C253.7 56.8 196.9 0 126.9 0m62.9 175.5l-19.8.3s-4.3.8-9.9-3c-7.4-5.1-14.4-18.3-19.9-16.6-5.5 1.8-5.4 13.7-5.4 13.7s0 2.5-1.2 3.9c-1.4 1.5-4.1 1.8-4.1 1.8h-8.9s-19.6 1.2-36.8-16.8c-18.8-19.6-35.4-58.5-35.4-58.5s-1-2.5.1-3.8c1.2-1.4 4.4-1.5 4.4-1.5l21.2-.1s2 .3 3.4 1.4c1.2.9 1.8 2.5 1.8 2.5s3.4 8.7 8 16.5c8.9 15.3 13 18.7 16 17 4.4-2.4 3.1-21.7 3.1-21.7s.1-7-2.2-10.1c-1.8-2.4-5.1-3.1-6.6-3.3-1.2-.2.8-2.9 3.3-4.2 3.8-1.9 10.6-2 18.5-1.9 6.2.1 8 .4 10.4 1 7.3 1.8 4.8 8.6 4.8 25 0 5.2-.9 12.6 2.8 15.1 1.6 1.1 5.6.2 15.5-16.7 4.7-8 8.2-17.4 8.2-17.4s.8-1.7 2-2.4 2.9-.5 2.9-.5l22.3-.1s6.7-.8 7.8 2.2c1.1 3.2-2.5 10.6-11.6 22.8-15 20-16.6 18.1-4.2 29.6 11.9 11 14.3 16.4 14.7 17.1 5.2 8.1-5.2 8.7-5.2 8.7"/>
</symbol><symbol id="icon-whatsapp" viewBox="0 0 153.4 154.6">
    <style>
        .st0{clip-path:url(#SVGID_2_);fill-rule:evenodd;clip-rule:evenodd;fill:#fff}
    </style>
    
    <clipPath id="SVGID_2_">
        <use xlink:href="#SVGID_1_" overflow="visible"/>
    </clipPath>
    <path class="st0" d="M78.1 0C36.5 0 2.8 33.7 2.8 75.3c0 14.2 3.9 27.5 10.8 38.9L0 154.6l41.7-13.3c10.8 6 23.2 9.4 36.4 9.4 41.6 0 75.3-33.7 75.3-75.3C153.4 33.7 119.7 0 78.1 0m0 138c-12.7 0-24.6-3.8-34.5-10.4l-24.1 7.7 7.8-23.3c-7.5-10.3-11.9-23-11.9-36.8 0-34.6 28.1-62.7 62.7-62.7s62.7 28.1 62.7 62.7c0 34.7-28.1 62.8-62.7 62.8m35.3-45.6c-1.9-1-11.2-6-12.9-6.7-1.7-.7-3-1.1-4.4.8-1.4 1.9-5.2 6.1-6.4 7.3-1.2 1.2-2.3 1.4-4.2.3-1.9-1-8-3.3-15.1-10.1-5.5-5.3-9.1-11.7-10.2-13.7-1.1-2 0-3 1-3.9.9-.8 2-2.2 3-3.3 1-1.1 1.4-1.9 2-3.1.7-1.3.4-2.4 0-3.4S62.3 46 60.8 42.1s-3.1-3.3-4.2-3.4c-1.1 0-2.4-.2-3.7-.3-1.3 0-3.4.4-5.2 2.2-1.8 1.9-7 6.3-7.3 15.8-.4 9.5 6.2 18.9 7.1 20.2.9 1.3 12.5 21.8 31.8 30.3 19.3 8.4 19.4 5.9 22.9 5.7 3.5-.2 11.6-4.2 13.3-8.7 1.8-4.4 1.9-8.3 1.5-9.1-.4-.8-1.7-1.3-3.6-2.4"/>
</symbol><symbol id="icon-youtube" viewBox="0 0 253.8 253.8">
    <style>
        .st0,.st1{fill:#fff}.st1{clip-path:url(#SVGID_2_)}
    </style>
    <path class="st0" d="M113.3 147l37-19.3-37-19.4z"/>
    
    <clipPath id="SVGID_2_">
        <use xlink:href="#SVGID_1_" overflow="visible"/>
    </clipPath>
    <path class="st1" d="M126.9 0C56.8 0 0 56.8 0 126.9v.1c0 70 56.8 126.8 126.8 126.8h.1c70 0 126.8-56.8 126.8-126.8v-.1C253.7 56.8 196.9 0 126.9 0m68.6 161c-1.7 7.4-7.8 12.9-15.1 13.7-17.3 1.9-34.9 1.9-52.4 1.9s-35 0-52.4-1.9c-7.3-.8-13.4-6.3-15.1-13.7-2.4-10.6-2.4-22.2-2.4-33.1 0-10.9 0-22.5 2.5-33.1 1.7-7.4 7.8-12.9 15.1-13.7 17.3-1.9 34.9-1.9 52.4-1.9s35 0 52.4 1.9c7.3.8 13.4 6.3 15.1 13.7 2.4 10.6 2.4 22.2 2.4 33.1-.1 11-.1 22.6-2.5 33.1"/>
</symbol></svg>